<svg height="400" viewBox="0 0 400 400" width="400" xmlns="http://www.w3.org/2000/svg"><g fill-rule="evenodd"><path d="m103.2.578c0 .406-.566.614-1.9.7-1.605.103-1.919.258-2.025.998-.087.613-.447.913-1.2 1-.752.087-1.112.387-1.2.999-.077.546-.454.923-1 1-.54.077-.922.455-.998.987-.075.525-.505.959-1.1 1.108-.797.2-.977.496-.977 1.609 0 .977-.283 1.585-1 2.15-.804.632-1 1.142-1 2.601 0 1.575-.118 1.831-.897 1.942-1.445.206-1.406-3.599-1.456 142.972-.05 148.147-.09 143.958 1.403 144.333.894.224.95.414.95 3.231 0 2.908.028 2.992.979 2.992.899 0 .989.172 1.1 2.1.105 1.814.241 2.117 1 2.225.742.106.898.419 1 2 .103 1.596.255 1.894 1.021 2.003.651.092.9.396.9 1.1 0 .757.211.972.95.972.72 0 1.004.271 1.174 1.118.128.642.66 1.352 1.25 1.668.564.302 1.026.789 1.026 1.082 0 .292.193.532.429.532.553 0 1.571 1.018 1.571 1.571 0 .236.45.429 1 .429.8 0 1 .2 1 1 0 .792.202 1 .972 1 .698 0 1.008.25 1.1.884.08.554.495.969 1.113 1.114s1.072.599 1.217 1.217c.142.606.561 1.033 1.09 1.11.528.076.907.461.983 1 .078.545.455.922 1 1 .546.077.923.454 1 1 .077.54.455.922.987.998.525.075.959.505 1.108 1.1.175.698.521.977 1.21.977.696 0 1 .251 1.092.9.079.558.449.946.973 1.021.465.066 1.046.561 1.292 1.1.245.538.675.979.956.979.28 0 1.019.54 1.642 1.2.651.689 1.544 1.2 2.099 1.2.764 0 .966.209.966 1 0 .792.202 1 .972 1 .704 0 1.008.249 1.1.9.092.644.44.936 1.228 1.027.848.097 1.1.339 1.1 1.056 0 .652.291 1.003.972 1.174.607.153 1.021.583 1.1 1.144.081.569.45.945 1.003 1.024.546.077.923.454 1 1 .077.54.455.922.987.998.525.075.959.505 1.108 1.1.175.698.521.977 1.21.977.696 0 1 .251 1.092.9.08.563.449.946.987 1.022.473.068.95.471 1.062.896.111.425.644.941 1.186 1.147.541.205 1.096.666 1.233 1.022.137.357.901.922 1.698 1.255s1.541.955 1.652 1.382c.126.481.549.776 1.113.776.637 0 .986.3 1.161 1 .184.731.519 1 1.244 1 .791 0 .992.202.992 1 0 .8.2 1 1 1 .798 0 1 .201 1 .992 0 .719.269 1.06.977 1.238.595.149 1.025.583 1.1 1.108.075.527.458.91.985.985.525.075.959.505 1.108 1.1.175.698.521.977 1.21.977.696 0 1 .251 1.092.9.081.57.449.946 1.003 1.025.546.077.923.454 1 1 .076.534.455.922.97.996.465.066 1.046.561 1.292 1.1.245.538.706.979 1.024.979.317 0 1.117.54 1.777 1.2s1.381 1.2 1.602 1.2.756.45 1.189 1c.432.55 1.165 1 1.629 1 .631 0 .842.25.842 1 0 .8.2 1 1 1s1 .2 1 1 .2 1 1 1c.798 0 1 .201 1 .992 0 .726.27 1.06 1.003 1.245.609.152 1.098.628 1.244 1.207.167.665.523.956 1.169.956.657 0 .966.262 1.056.896.074.517.466.96.927 1.048.439.084 1.196.581 1.681 1.104.557.601 1.331.952 2.101.952.817 0 1.219.198 1.219.6 0 .521 1.756.6 13.4.6s13.4-.079 13.4-.6c0-.4.4-.6 1.2-.6 1.013 0 1.2-.156 1.2-1 0-.872.175-1 1.371-1 1.272 0 2.629-.818 2.629-1.585 0-.181.45-.441 1-.579.593-.149 1-.538 1-.956 0-.416.492-.89 1.2-1.158.805-.304 1.2-.727 1.2-1.287 0-.624.253-.835 1-.835.8 0 1-.2 1-1s.2-1 1-1 1-.2 1-1 .2-1 1-1c.793 0 1-.202 1-.973 0-.765.236-1.001 1.1-1.1.777-.09 1.137-.384 1.225-1.002.077-.546.454-.923 1-1 .618-.088.912-.448 1.002-1.225.1-.87.333-1.1 1.118-1.1.545 0 1.397-.405 1.892-.9.496-.495 1.387-1.121 1.982-1.391.595-.271 1.081-.746 1.081-1.057s.45-.678 1-.816c.593-.149 1-.538 1-.956 0-.416.492-.89 1.2-1.158.66-.249 1.2-.735 1.2-1.08s.45-.74 1-.878c.718-.18 1-.521 1-1.207 0-.754.212-.957 1-.957.8 0 1-.2 1-1 0-.788.203-1 .957-1 .679 0 1.027-.282 1.2-.972.153-.607.583-1.021 1.144-1.1.569-.081.945-.45 1.024-1.003.077-.546.454-.923 1-1 .554-.079.922-.455 1.003-1.025.077-.54.406-.9.825-.9.383 0 1.077-.515 1.542-1.144.466-.63 1.385-1.252 2.044-1.384.704-.141 1.3-.565 1.448-1.03.138-.435.647-.848 1.132-.917.551-.078.928-.453 1.006-1 .077-.546.454-.923 1-1 .481-.069 1.048-.52 1.26-1.003s.785-.978 1.273-1.101c.525-.132.939-.589 1.014-1.122.082-.577.45-.945 1.028-1.027.651-.092.9-.396.9-1.1 0-.768.208-.972.992-.972.719 0 1.06-.269 1.238-.977.149-.595.583-1.025 1.108-1.1.541-.077.91-.458.99-1.023.092-.651.396-.9 1.1-.9.77 0 .972-.208.972-1 0-.787.203-1 .953-1 .623 0 1.028-.283 1.167-.815.124-.474.898-1.103 1.846-1.5.898-.377 1.73-.982 1.848-1.345s.658-.772 1.2-.908c.618-.155.986-.533.986-1.012 0-.488.325-.811.9-.892.495-.07 1.075-.526 1.288-1.012s.753-.936 1.2-1c.479-.068.862-.47.935-.978.075-.525.505-.959 1.1-1.108.699-.175.977-.52.977-1.211 0-.756.239-.993 1.1-1.092.788-.091 1.136-.383 1.228-1.027.092-.651.396-.9 1.1-.9.77 0 .972-.208.972-1 0-.8.2-1 1-1s1-.2 1-1 .2-1 1-1 1-.2 1-1c0-.696.219-1 .72-1 .912 0 1.68-.756 1.68-1.652 0-.413.363-.744.9-.82.578-.082.946-.45 1.028-1.028.07-.495.379-.9.686-.9.742 0 1.386-1.268 1.386-2.73 0-.929.215-1.237 1-1.434.897-.225 1-.454 1-2.216 0-1.733.106-1.979.9-2.092.832-.118.909-.36 1.016-3.202.107-2.825.188-3.085 1-3.2 1.446-.206 1.424 2.023 1.45-143.526.026-146.771.068-142.62-1.424-143.299-.8-.365-.942-.72-.942-2.365 0-1.798-.071-1.936-1-1.936-.919 0-1-.146-1-1.81 0-1.547-.141-1.863-.969-2.178-.562-.214-1.025-.757-1.1-1.29-.083-.586-.445-.967-.993-1.045-.525-.075-.959-.505-1.108-1.1-.175-.698-.521-.977-1.21-.977-.696 0-1-.251-1.092-.9-.109-.768-.407-.918-2.028-1.022-1.334-.086-1.9-.294-1.9-.7 0-.502-12.653-.578-96.8-.578s-96.8.076-96.8.578m180.069 24.884c.858.777 1.168 264.01.317 269.254-.792 4.88-2.828 7.716-10.399 14.484-1.845 1.65-3.839 3.45-4.43 4s-3.287 2.98-5.992 5.4-8.895 8-13.755 12.4-14.141 12.791-20.623 18.646c-6.483 5.855-15.28 13.805-19.55 17.665-8.274 7.483-9.177 8.026-10.837 6.52-.55-.499-4.78-4.3-9.4-8.446-4.62-4.147-10.29-9.27-12.6-11.385s-7.98-7.244-12.6-11.397c-4.62-4.154-9.21-8.306-10.2-9.227-.99-.922-2.79-2.569-4-3.662-1.21-1.092-3.377-3.05-4.816-4.35s-4.212-3.804-6.164-5.564c-1.951-1.76-4.029-3.65-4.617-4.2-.589-.55-2.578-2.35-4.422-4-5.923-5.302-9.836-9.179-10.398-10.304-.302-.603-.773-1.371-1.048-1.708-1.886-2.31-1.791 4.196-2.026-139.427l-.22-134.038.945-.662c1.457-1.02 165.707-1.02 166.835.001m-124.664 34.992c-6.955 1.627-7.191 12.572-.322 14.912 2.402.819 80.218.976 83.071.168 7.495-2.124 7.423-13.429-.098-15.176-2.006-.467-80.638-.375-82.651.096m2.395 40.319c-8.17 1.134-10.754 9.985-4.261 14.593l1.74 1.234h35.695 35.694l1.635-1.132c5.429-3.763 4.849-11.281-1.082-14.026-1.874-.867-63.702-1.463-69.421-.669m-2.549 41.254c-6.729 2.72-7.109 11.425-.651 14.91l1.6.863h40.6 40.6l2.189-1.2c5.328-2.92 5.787-9.922.882-13.453l-1.871-1.347-41.2-.078c-25.571-.049-41.56.067-42.149.305" fill="#0a0a0a"/><path d="m116.434 25.461-.945.662.22 134.038c.235 143.623.14 137.117 2.026 139.427.275.337.746 1.105 1.048 1.708.562 1.125 4.475 5.002 10.398 10.304 1.844 1.65 3.833 3.45 4.422 4 .588.55 2.666 2.44 4.617 4.2 1.952 1.76 4.725 4.264 6.164 5.564s3.606 3.258 4.816 4.35c1.21 1.093 3.01 2.74 4 3.662.99.921 5.58 5.073 10.2 9.227 4.62 4.153 10.29 9.282 12.6 11.397s7.98 7.238 12.6 11.385c4.62 4.146 8.85 7.947 9.4 8.446 1.66 1.506 2.563.963 10.837-6.52 4.27-3.86 13.067-11.81 19.55-17.665 6.482-5.855 15.763-14.246 20.623-18.646s11.05-9.98 13.755-12.4 5.401-4.85 5.992-5.4 2.585-2.35 4.43-4c7.571-6.768 9.607-9.604 10.399-14.484.851-5.244.541-268.477-.317-269.254-1.128-1.021-165.378-1.021-166.835-.001m124.822 34.897c7.521 1.747 7.593 13.052.098 15.176-2.853.808-80.669.651-83.071-.168-6.869-2.34-6.633-13.285.322-14.912 2.013-.471 80.645-.563 82.651-.096m-10.835 41.084c5.931 2.745 6.511 10.263 1.082 14.026l-1.635 1.132h-35.694-35.695l-1.74-1.234c-6.493-4.608-3.909-13.459 4.261-14.593 5.719-.794 67.547-.198 69.421.669m13.25 41.705c4.905 3.531 4.446 10.533-.882 13.453l-2.189 1.2h-40.6-40.6l-1.6-.863c-6.458-3.485-6.078-12.19.651-14.91.589-.238 16.578-.354 42.149-.305l41.2.078z" fill="#fbfbfb"/></g></svg>