<?xml version="1.0" standalone="no"?>
<!DOCTYPE svg PUBLIC "-//W3C//DTD SVG 20010904//EN"
 "http://www.w3.org/TR/2001/REC-SVG-20010904/DTD/svg10.dtd">
<svg version="1.0" xmlns="http://www.w3.org/2000/svg"
 width="1024.000000pt" height="1024.000000pt" viewBox="0 0 1024.000000 1024.000000"
 preserveAspectRatio="xMidYMid meet">
<metadata>
Created by potrace 1.11, written by Peter Selinger 2001-2013
</metadata>
<g transform="translate(0.000000,1024.000000) scale(0.100000,-0.100000)"
fill="#000000" stroke="none">
<path d="M2845 10230 c-251 -50 -449 -244 -501 -490 -14 -67 -15 -440 -16
-3560 0 -2616 3 -3504 12 -3562 39 -261 183 -513 396 -695 12 -10 61 -54 109
-98 49 -44 98 -89 111 -100 12 -11 59 -54 104 -95 46 -41 91 -82 100 -90 10
-8 59 -53 110 -100 51 -47 102 -93 113 -103 12 -10 55 -49 97 -87 42 -38 85
-77 97 -87 24 -21 186 -169 217 -198 24 -23 200 -182 260 -235 22 -19 64 -58
95 -86 31 -28 71 -64 89 -80 18 -16 52 -47 75 -69 54 -51 213 -194 250 -226
16 -13 43 -37 61 -54 98 -93 173 -141 276 -175 200 -67 436 -32 600 89 30 22
215 183 230 200 3 3 28 26 55 51 71 63 199 178 335 301 63 57 130 117 149 134
18 16 45 41 60 54 14 13 46 42 71 65 25 22 88 79 140 126 52 47 100 90 106 95
6 6 48 44 94 85 46 41 100 91 121 110 21 19 53 48 71 64 18 16 71 63 117 105
46 42 88 81 95 86 24 21 201 180 206 185 3 3 50 45 105 95 142 128 211 200
261 277 24 37 44 70 44 73 0 3 10 22 23 43 43 69 98 238 114 352 4 30 8 1632
8 3560 0 3400 -1 3507 -19 3575 -39 145 -136 284 -255 364 -74 49 -116 68
-203 91 -71 18 -146 19 -2308 18 -1229 0 -2253 -4 -2275 -8z"/>
</g>
</svg>
