<?xml version="1.0" encoding="utf-8"?>
<!-- Generator: Adobe Illustrator 28.2.0, SVG Export Plug-In . SVG Version: 6.00 Build 0)  -->
<svg version="1.1" id="Layer_2_00000042728077981532126140000007387141023289594019_"
	 xmlns="http://www.w3.org/2000/svg" xmlns:xlink="http://www.w3.org/1999/xlink" x="0px" y="0px" viewBox="0 0 284 300.6"
	 style="enable-background:new 0 0 284 300.6;" xml:space="preserve">
<style type="text/css">
	.st0{fill:#FFFFFF;}
	.st1{fill:none;stroke:#FFFFFF;stroke-width:8;stroke-miterlimit:10;}
	.st2{fill:#FFFFFF;stroke:#FFFFFF;stroke-width:8;stroke-miterlimit:10;}
	.st3{fill:none;stroke:#FFFFFF;stroke-width:12;stroke-linecap:round;stroke-miterlimit:10;}
</style>
<g>
	<g>
		<g>
			<path class="st0" d="M260.7,4H23.3C12.7,4,4,12.7,4,23.3v203.3c0,10.7,8.7,19.3,19.3,19.3h237.3c10.7,0,19.3-8.7,19.3-19.3V23.3
				C280,12.7,271.3,4,260.7,4z M262.7,212.2c0,10.7-8.7,19.3-19.3,19.3H39.7c-10.7,0-19.3-8.7-19.3-19.3V38.3
				C20.4,27.7,29,19,39.7,19h203.7c10.7,0,19.3,8.7,19.3,19.3L262.7,212.2L262.7,212.2z"/>
		</g>
	</g>
	<g>
		<g>
			<path class="st1" d="M260.7,4H23.3C12.7,4,4,12.7,4,23.3v203.3c0,10.7,8.7,19.3,19.3,19.3h237.3c10.7,0,19.3-8.7,19.3-19.3V23.3
				C280,12.7,271.3,4,260.7,4z M262.7,212.2c0,10.7-8.7,19.3-19.3,19.3H39.7c-10.7,0-19.3-8.7-19.3-19.3V38.3
				C20.4,27.7,29,19,39.7,19h203.7c10.7,0,19.3,8.7,19.3,19.3L262.7,212.2L262.7,212.2z"/>
		</g>
	</g>
</g>
<g id="Layer_1-2">
	<polygon class="st2" points="142,295 93,246.5 191,246.5 	"/>
	<line class="st3" x1="59" y1="125" x2="225" y2="125"/>
	<line class="st3" x1="58" y1="174" x2="224" y2="174"/>
	<line class="st3" x1="59" y1="76" x2="225" y2="76"/>
</g>
</svg>
